<svg width="" height="" viewBox="0 0 25 24" fill="" xmlns="http://www.w3.org/2000/svg">
<path fill-rule="evenodd" clip-rule="evenodd" d="M6.85968 6.96333L5.98272 18.89C5.91879 19.7594 6.60692 20.5 7.47868 20.5H17.5211C18.3929 20.5 19.081 19.7594 19.0171 18.89L18.1403 6.96334C18.1211 6.70213 17.9035 6.5 17.6416 6.5H16.4955L16.4956 8.99994L14.9956 9L14.9955 6.5H10.0002L10.0001 9L8.50006 8.99994L8.50016 6.5H7.35833C7.09641 6.5 6.87889 6.70212 6.85968 6.96333ZM8.50023 5H7.35833C6.31066 5 5.44054 5.80849 5.36372 6.85334L4.48676 18.78C4.3589 20.5188 5.73516 22 7.47868 22H17.5211C19.2646 22 20.6409 20.5188 20.5131 18.78L19.6362 6.85336C19.5594 5.8085 18.6893 5 17.6416 5H16.4954L16.4954 4.74988C16.4953 3.23115 15.2641 2 13.7454 2H11.2502C9.7315 2 8.5003 3.23115 8.50024 4.74989L8.50023 5ZM10.0002 5L10.0002 4.74995C10.0003 4.05961 10.5599 3.5 11.2502 3.5H13.7454C14.4357 3.5 14.9954 4.05961 14.9954 4.74995L14.9954 5H10.0002Z" fill=""/>
</svg>
